<svg width="15" height="15" viewBox="0 0 15 15" fill="none" xmlns="http://www.w3.org/2000/svg">
<g clip-path="url(#clip0_1_374)">
<path d="M3.64807 14.3735V1.53476L5.90435 3.79104C5.97793 3.86462 6.07296 3.9014 6.17106 3.9014C6.26916 3.9014 6.36419 3.86462 6.43777 3.79104C6.58492 3.64389 6.58492 3.40784 6.43777 3.26069L3.54077 0.363698C3.39976 0.22268 3.15144 0.22268 3.01042 0.363698L0.110362 3.26069C-0.0367873 3.40784 -0.0367873 3.64389 0.110362 3.79104C0.257511 3.93819 0.493562 3.93819 0.640711 3.79104L2.897 1.53476V14.3735C2.897 14.582 3.0656 14.7506 3.27407 14.7506C3.47946 14.7475 3.64807 14.5789 3.64807 14.3735Z" fill="black"/>
<path d="M11.4591 14.6368C11.5327 14.7103 11.6277 14.7471 11.7258 14.7471C11.8239 14.7471 11.919 14.7103 11.9925 14.6368L14.8895 11.7398C15.0367 11.5926 15.0367 11.3566 14.8895 11.2094C14.7424 11.0623 14.5063 11.0623 14.3592 11.2094L12.1029 13.4657V0.626947C12.1029 0.418486 11.9343 0.249878 11.7258 0.249878C11.5174 0.249878 11.3488 0.418486 11.3488 0.626947V13.4657L9.09555 11.2094C8.9484 11.0623 8.71234 11.0623 8.5652 11.2094C8.41805 11.3566 8.41805 11.5926 8.5652 11.7398L11.4591 14.6368Z" fill="black"/>
</g>
<defs>
<clipPath id="clip0_1_374">
<rect width="15" height="15" fill="white"/>
</clipPath>
</defs>
</svg>
