<svg width="124" height="20" viewBox="0 0 124 20" fill="none" xmlns="http://www.w3.org/2000/svg">
<path d="M1.81046 16.5997C0.789541 16.5997 0 15.8327 0 14.9258V1.88351C0 0.930503 0.835856 0.209534 1.81046 0.209534H5.73334C9.21448 0.209534 10.9552 2.44166 10.9552 4.76582C10.9552 6.39347 9.91098 7.39273 8.51839 8.06738C9.9573 8.64801 11.3965 9.69482 11.3965 11.7164C11.3965 14.4374 9.21435 16.5999 5.6405 16.5999H1.81046V16.5997ZM5.91867 6.62578C6.73113 6.62578 7.70566 6.06763 7.70566 4.81235C7.70566 3.92965 7.2878 3.13865 6.08094 3.13865H3.24957V6.62585H5.91867V6.62578ZM3.24964 9.60169V13.6462H5.84895C7.38084 13.6462 8.14712 12.8798 8.14712 11.6699C8.14712 10.3447 7.2189 9.60169 5.98831 9.60169H3.24964Z" fill="black"/>
<path d="M25.32 16.5996H19.1694C18.0322 16.5996 17.0115 16.2042 17.0115 14.949V1.86005C17.0115 1.0467 17.7768 0.209438 18.7985 0.209438H25.0879C25.9704 0.209438 26.7127 0.907041 26.7127 1.72053C26.7127 2.55792 25.9704 3.16199 25.0879 3.16199H20.2607V6.90486H24.6473C25.4594 6.90486 26.2489 7.53223 26.2489 8.36969C26.2489 9.20607 25.5522 9.85748 24.6473 9.85748H20.2607V13.6461H25.32C26.1792 13.6461 26.9449 14.2975 26.9449 15.0885C26.9449 15.9259 26.2027 16.5996 25.32 16.5996Z" fill="black"/>
<path d="M39.3838 11.136C39.3838 14.6691 38.1309 16.8089 33.9998 16.8089C33.1173 16.8089 31.3301 16.7159 31.3301 15.2047C31.3301 14.2744 32.1891 13.739 32.8387 13.739C33.3729 13.739 33.6748 13.8788 34.2544 13.8788C35.8092 13.8788 36.1346 12.8328 36.1346 11.1358V1.48765C36.1345 0.674508 36.831 0 37.7594 0C38.6176 0 39.3839 0.697807 39.3839 1.48772L39.3838 11.136Z" fill="black"/>
<path d="M77.515 15.3442C77.515 16.1345 76.7716 16.8089 75.9131 16.8089C75.0316 16.8089 74.2653 16.1345 74.2653 15.3442V7.34595L71.6196 12.5538C71.3178 13.1576 70.7371 13.4368 70.0878 13.4368C69.4608 13.4368 68.881 13.1576 68.5791 12.5538L65.9334 7.34595V15.3443C65.9334 16.1345 65.1671 16.809 64.2624 16.809C63.3798 16.809 62.6841 16.1345 62.6841 15.3443V1.53445C62.6841 0.651346 63.4031 0.000204376 64.3551 0.000204376C65.0975 0.000204376 65.678 0.302544 65.98 0.907156L70.1109 9.11325L74.2421 0.883994C74.5674 0.209485 75.1934 0 75.8435 0C76.795 0 77.515 0.697807 77.515 1.53432V15.3442Z" fill="black"/>
<path d="M95.848 14.8093L91.3224 1.58092C90.9972 0.651278 90.5328 0 89.419 0C88.3051 0 87.8409 0.674508 87.5387 1.58085L83.0131 14.8093C82.9667 14.9257 82.9441 15.2049 82.9441 15.3212C82.9441 16.2043 83.7096 16.809 84.6146 16.809C85.1719 16.809 85.915 16.3903 86.1463 15.7166C86.1463 15.7166 89.3261 5.18447 89.419 4.46377C89.5118 5.18447 92.6686 15.7166 92.6686 15.7166C92.9006 16.3673 93.6429 16.809 94.2465 16.809C95.198 16.809 95.9178 16.2043 95.9178 15.3212C95.9179 15.2049 95.8946 14.9258 95.848 14.8093Z" fill="black"/>
<path d="M57.394 14.8093L52.8681 1.58092C52.5428 0.651278 52.0786 0 50.9649 0C49.8509 0 49.3865 0.674508 49.0844 1.58085L44.5587 14.8093C44.5121 14.9257 44.4897 15.2049 44.4897 15.3212C44.4897 16.2043 45.2552 16.809 46.1601 16.809C46.7174 16.809 47.4605 16.3903 47.692 15.7166C47.692 15.7166 50.8717 5.18447 50.9649 4.46377C51.0576 5.18447 54.2142 15.7166 54.2142 15.7166C54.4464 16.3673 55.1886 16.809 55.7922 16.809C56.7435 16.809 57.4634 16.2043 57.4634 15.3212C57.4635 15.2049 57.4405 14.9258 57.394 14.8093Z" fill="black"/>
<path d="M107.475 10.275C106.987 10.0665 106.407 9.85746 105.78 9.64811C103.506 8.95023 101.045 8.18341 101.045 4.8123C101.045 1.81349 103.134 0 106.431 0C107.8 0 111.095 0.34887 111.095 2.09267C111.095 2.85956 110.492 3.5573 109.471 3.5573C109.053 3.5573 108.728 3.41771 108.333 3.30156C107.892 3.13846 107.382 2.95269 106.57 2.95269C105.432 2.95269 104.364 3.34802 104.364 4.71924C104.364 5.74187 104.945 6.09088 105.339 6.27686C105.943 6.57927 106.5 6.76532 107.01 6.90491C109.285 7.62526 111.768 8.41606 111.768 11.7163C111.768 14.949 109.308 16.809 105.989 16.809C104.271 16.809 101.022 16.2043 101.022 14.5759C101.022 13.8323 101.695 13.1113 102.554 13.1113C102.902 13.1113 103.274 13.2275 103.714 13.3906C104.271 13.5767 105.015 13.8559 106.012 13.8559C107.614 13.8559 108.426 13.1346 108.426 11.856C108.426 10.8099 107.892 10.4613 107.475 10.275Z" fill="black"/>
<path d="M122.398 16.7128C123.211 16.7128 124 17.3635 124 18.2007C124 19.0373 123.304 19.6652 122.398 19.6652H116.218C115.313 19.6652 114.616 19.0373 114.616 18.2007C114.616 17.3635 115.406 16.7128 116.218 16.7128H122.398Z" fill="black"/>
</svg>
